#N canvas 0 25 1440 847 12;
#X floatatom 330 590 3 0 0 0 - - - 0;
#X obj 330 532 bng 19 250 50 0 empty empty empty 0 -10 0 12 #fcfcfc #000000 #000000;
#X obj 467 502 loadbang;
#X floatatom 1011 216 5 0 0 0 - - - 0;
#X obj 1011 157 bng 19 250 50 0 empty empty empty 0 -10 0 12 #fcfcfc #000000 #000000;
#X obj 1176 127 loadbang;
#N canvas 92 117 1004 748 urn-jb-track 0;
#X msg 385 120 clear \, bang;
#X obj 276 199 ==;
#X obj 276 224 select 1;
#X obj 276 249 tgl 16 0 empty empty empty 0 -8 0 10 #fcfcfc #000000 #000000 0 1;
#X obj 261 278 +;
#X floatatom 261 346 5 0 0 0 - - - 0;
#X obj 261 316 %;
#X obj 262 79 inlet;
#X obj 492 77 inlet;
#X text 61 224 If new value is a repeat...;
#X text 91 275 ... then toggle offset;
#X text 93 316 constrain to urn range;
#X text 123 79 bang for new value;
#X text 417 77 urn range;
#X obj 261 369 outlet;
#X text 149 369 new value out;
#X obj 262 167 t f f f;
#N canvas 182 25 1258 847 urn-track 0;
#X obj 197 488 t a a;
#X obj 127 418 - 1;
#X obj 76 282 select 0;
#X obj 338 363 outlet;
#X obj 197 637 outlet;
#X obj 265 41 inlet;
#X obj 76 54 inlet;
#X obj 265 95 f \$1;
#X obj 276 65 loadbang;
#X obj 170 102 b;
#X obj 197 465 random;
#N canvas 689 538 264 239 count-down 0;
#X obj 59 66 inlet;
#X obj 127 60 inlet;
#X obj 59 159 outlet;
#X text 123 37 count from?;
#X text 54 35 trigger;
#X obj 59 96 bang;
#X obj 95 131 - 1;
#X obj 59 131 f;
#X connect 0 0 5 0;
#X connect 1 0 7 1;
#X connect 5 0 7 0;
#X connect 6 0 7 1;
#X connect 7 0 6 0;
#X connect 7 0 2 0;
#X restore 76 249 pd count-down;
#X text 334 389 bang if urn empty;
#X text 172 659 urn selection;
#X obj 127 390 t a b;
#X obj 76 77 route bang seed clear;
#N canvas 549 246 251 276 gate_2 0;
#X obj 68 18 inlet;
#X obj 84 65 inlet;
#X obj 68 212 outlet;
#X obj 100 191 outlet;
#X obj 68 92 f 0;
#X obj 68 118 select 0 1;
#X obj 68 41 b;
#X connect 0 0 6 0;
#X connect 1 0 4 1;
#X connect 4 0 5 0;
#X connect 5 0 2 0;
#X connect 5 1 3 0;
#X connect 6 0 4 0;
#X restore 76 206 pd gate_2;
#N canvas 589 293 450 300 init-urn-table 0;
#N canvas 0 0 450 300 count 0;
#X obj 158 193 + 1;
#X obj 122 158 until;
#X obj 122 194 f;
#X obj 122 101 inlet;
#X msg 167 157 0;
#X obj 122 120 t a b;
#X obj 122 224 outlet;
#X connect 0 0 2 1;
#X connect 1 0 2 0;
#X connect 2 0 0 0;
#X connect 2 0 6 0;
#X connect 3 0 5 0;
#X connect 4 0 2 1;
#X connect 5 0 1 0;
#X connect 5 1 4 0;
#X restore 117 197 pd count;
#X obj 117 218 t a a;
#X msg 147 148 resize \$1;
#X obj 117 82 t a a;
#X obj 117 49 inlet;
#X obj 147 128 change;
#X obj 147 105 int;
#X obj 117 249 tabwrite \$0-urn-track;
#X obj 147 173 s \$0-urn-track;
#X connect 0 0 1 0;
#X connect 1 0 7 0;
#X connect 1 1 7 1;
#X connect 2 0 8 0;
#X connect 3 0 0 0;
#X connect 3 1 6 0;
#X connect 4 0 3 0;
#X connect 5 0 2 0;
#X connect 6 0 5 0;
#X restore 323 149 pd init-urn-table;
#X obj 265 125 t b a a a;
#X obj 76 306 t b b;
#X msg 134 181 0;
#X msg 149 204 1;
#X obj 324 171 table \$0-urn-track \$1;
#X obj 197 609 tabread \$0-urn-track;
#X obj 127 559 tabwrite \$0-urn-track;
#X obj 127 531 tabread \$0-urn-track;
#X msg 578 400 seed \$1;
#X obj 644 169 loadbang;
#X obj 644 227 snapshot~;
#X obj 588 169 adc~ 1;
#X obj 588 198 hip~ 5;
#X obj 644 256 abs;
#X obj 644 285 * 1e+07;
#X obj 644 314 % 1000;
#X text 562 143 seed random from analog;
#X obj 644 198 delay 100 1 msec;
#X connect 0 0 23 0;
#X connect 0 1 24 1;
#X connect 1 0 10 1;
#X connect 1 0 25 0;
#X connect 2 0 19 0;
#X connect 2 1 14 0;
#X connect 5 0 7 0;
#X connect 6 0 15 0;
#X connect 7 0 18 0;
#X connect 8 0 7 0;
#X connect 9 0 7 0;
#X connect 10 0 0 0;
#X connect 11 0 2 0;
#X connect 14 0 1 0;
#X connect 14 1 10 0;
#X connect 15 0 16 0;
#X connect 15 2 9 0;
#X connect 16 0 11 0;
#X connect 16 1 3 0;
#X connect 18 0 20 0;
#X connect 18 1 11 1;
#X connect 18 2 10 1;
#X connect 18 3 17 0;
#X connect 19 0 3 0;
#X connect 19 1 21 0;
#X connect 20 0 16 1;
#X connect 21 0 16 1;
#X connect 23 0 4 0;
#X connect 25 0 24 0;
#X connect 26 0 10 0;
#X connect 27 0 35 0;
#X connect 28 0 31 0;
#X connect 29 0 30 0;
#X connect 30 0 28 0;
#X connect 31 0 32 0;
#X connect 32 0 33 0;
#X connect 33 0 26 0;
#X connect 35 0 28 0;
#X restore 262 120 pd urn-track;
#X connect 0 0 17 0;
#X connect 1 0 2 0;
#X connect 2 0 3 0;
#X connect 3 0 4 1;
#X connect 4 0 6 0;
#X connect 5 0 14 0;
#X connect 6 0 5 0;
#X connect 7 0 17 0;
#X connect 8 0 17 1;
#X connect 8 0 6 1;
#X connect 16 0 4 0;
#X connect 16 1 1 1;
#X connect 16 2 1 0;
#X connect 17 0 16 0;
#X connect 17 1 0 0;
#X restore 330 561 pd urn-jb-track;
#X f 20;
#X floatatom 1623 210 5 0 0 0 - - - 0;
#X obj 1623 152 bng 19 250 50 0 empty empty empty 0 -10 0 12 #fcfcfc #000000 #000000;
#X obj 1753 122 loadbang;
#N canvas 92 117 1004 748 urn-jb-scenario 0;
#X msg 412 157 clear \, bang;
#X obj 263 236 ==;
#X obj 263 261 select 1;
#X obj 263 286 tgl 16 0 empty empty empty 0 -8 0 10 #fcfcfc #000000 #000000 0 1;
#X obj 248 315 +;
#X floatatom 248 383 5 0 0 0 - - - 0;
#X obj 248 353 %;
#X obj 249 116 inlet;
#X obj 519 114 inlet;
#X text 48 261 If new value is a repeat...;
#X text 78 312 ... then toggle offset;
#X text 80 353 constrain to urn range;
#X text 110 116 bang for new value;
#X text 444 114 urn range;
#X obj 248 406 outlet;
#X text 136 406 new value out;
#X obj 249 204 t f f f;
#N canvas 57 25 1258 847 urn-scenario 0;
#X obj 197 488 t a a;
#X obj 127 418 - 1;
#X obj 76 282 select 0;
#X obj 338 363 outlet;
#X obj 197 637 outlet;
#X obj 265 51 inlet;
#X obj 76 54 inlet;
#X obj 265 105 f \$1;
#X obj 276 75 loadbang;
#X obj 170 102 b;
#X obj 197 465 random;
#N canvas 689 538 264 239 count-down 0;
#X obj 59 66 inlet;
#X obj 127 60 inlet;
#X obj 59 159 outlet;
#X text 123 37 count from?;
#X text 54 35 trigger;
#X obj 59 96 bang;
#X obj 85 131 - 1;
#X obj 59 131 f;
#X connect 0 0 5 0;
#X connect 1 0 7 1;
#X connect 5 0 7 0;
#X connect 6 0 7 1;
#X connect 7 0 6 0;
#X connect 7 0 2 0;
#X restore 76 249 pd count-down;
#X text 334 389 bang if urn empty;
#X text 172 659 urn selection;
#X obj 127 390 t a b;
#X obj 76 77 route bang seed clear;
#N canvas 549 246 251 276 gate_2 0;
#X obj 68 18 inlet;
#X obj 84 65 inlet;
#X obj 68 212 outlet;
#X obj 100 191 outlet;
#X obj 68 92 f 0;
#X obj 68 118 select 0 1;
#X obj 68 41 b;
#X connect 0 0 6 0;
#X connect 1 0 4 1;
#X connect 4 0 5 0;
#X connect 5 0 2 0;
#X connect 5 1 3 0;
#X connect 6 0 4 0;
#X restore 76 206 pd gate_2;
#N canvas 589 293 450 300 init-urn-table 0;
#N canvas 0 25 450 300 count 0;
#X obj 158 193 + 1;
#X obj 122 158 until;
#X obj 122 194 f;
#X obj 122 101 inlet;
#X msg 167 157 0;
#X obj 122 120 t a b;
#X obj 122 224 outlet;
#X connect 0 0 2 1;
#X connect 1 0 2 0;
#X connect 2 0 0 0;
#X connect 2 0 6 0;
#X connect 3 0 5 0;
#X connect 4 0 2 1;
#X connect 5 0 1 0;
#X connect 5 1 4 0;
#X restore 117 197 pd count;
#X obj 117 218 t a a;
#X msg 147 148 resize \$1;
#X obj 117 82 t a a;
#X obj 117 49 inlet;
#X obj 147 128 change;
#X obj 147 105 int;
#X obj 147 173 s \$0-urn-scenario;
#X obj 117 246 tabwrite \$0-urn-scenario;
#X connect 0 0 1 0;
#X connect 1 0 8 0;
#X connect 1 1 8 1;
#X connect 2 0 7 0;
#X connect 3 0 0 0;
#X connect 3 1 6 0;
#X connect 4 0 3 0;
#X connect 5 0 2 0;
#X connect 6 0 5 0;
#X restore 323 149 pd init-urn-table;
#X obj 265 125 t b a a a;
#X obj 76 306 t b b;
#X msg 134 181 0;
#X msg 149 204 1;
#X obj 324 171 table \$0-urn-scenario \$1;
#X obj 127 531 tabread \$0-urn-scenario;
#X obj 127 559 tabwrite \$0-urn-scenario;
#X obj 197 609 tabread \$0-urn-scenario;
#X msg 578 400 seed \$1;
#X obj 644 169 loadbang;
#X obj 644 227 snapshot~;
#X obj 588 169 adc~ 1;
#X obj 588 198 hip~ 5;
#X obj 644 256 abs;
#X obj 644 285 * 1e+07;
#X obj 644 314 % 1000;
#X text 562 143 seed random from analog;
#X obj 644 198 delay 300 1 msec;
#X connect 0 0 25 0;
#X connect 0 1 24 1;
#X connect 1 0 10 1;
#X connect 1 0 23 0;
#X connect 2 0 19 0;
#X connect 2 1 14 0;
#X connect 5 0 7 0;
#X connect 6 0 15 0;
#X connect 7 0 18 0;
#X connect 8 0 7 0;
#X connect 9 0 7 0;
#X connect 10 0 0 0;
#X connect 11 0 2 0;
#X connect 14 0 1 0;
#X connect 14 1 10 0;
#X connect 15 0 16 0;
#X connect 15 2 9 0;
#X connect 16 0 11 0;
#X connect 16 1 3 0;
#X connect 18 0 20 0;
#X connect 18 1 11 1;
#X connect 18 2 10 1;
#X connect 18 3 17 0;
#X connect 19 0 3 0;
#X connect 19 1 21 0;
#X connect 20 0 16 1;
#X connect 21 0 16 1;
#X connect 23 0 24 0;
#X connect 25 0 4 0;
#X connect 26 0 10 0;
#X connect 27 0 35 0;
#X connect 28 0 31 0;
#X connect 29 0 30 0;
#X connect 30 0 28 0;
#X connect 31 0 32 0;
#X connect 32 0 33 0;
#X connect 33 0 26 0;
#X connect 35 0 28 0;
#X restore 249 157 pd urn-scenario;
#X connect 0 0 17 0;
#X connect 1 0 2 0;
#X connect 2 0 3 0;
#X connect 3 0 4 1;
#X connect 4 0 6 0;
#X connect 5 0 14 0;
#X connect 6 0 5 0;
#X connect 7 0 17 0;
#X connect 8 0 17 1;
#X connect 8 0 6 1;
#X connect 16 0 4 0;
#X connect 16 1 1 1;
#X connect 16 2 1 0;
#X connect 17 0 16 0;
#X connect 17 1 0 0;
#X restore 1623 181 pd urn-jb-scenario;
#X f 19;
#X text 1655 151 no. of files;
#X floatatom 2024 206 5 0 0 0 - - - 0;
#X obj 2024 148 bng 19 250 50 0 empty empty empty 0 -10 0 12 #fcfcfc #000000 #000000;
#X obj 2154 118 loadbang;
#X text 2056 147 no. of files;
#N canvas 92 117 1004 748 urn-jb-music 0;
#X msg 392 135 clear \, bang;
#X obj 243 214 ==;
#X obj 243 239 select 1;
#X obj 243 264 tgl 16 0 empty empty empty 0 -8 0 10 #fcfcfc #000000 #000000 0 1;
#X obj 228 293 +;
#X floatatom 228 361 5 0 0 0 - - - 0;
#X obj 228 331 %;
#X obj 229 94 inlet;
#X obj 499 92 inlet;
#X text 28 239 If new value is a repeat...;
#X text 58 290 ... then toggle offset;
#X text 60 331 constrain to urn range;
#X text 90 94 bang for new value;
#X text 424 92 urn range;
#X obj 228 384 outlet;
#X text 116 384 new value out;
#X obj 229 182 t f f f;
#N canvas 57 25 1258 847 urn-music 0;
#X obj 197 488 t a a;
#X obj 127 418 - 1;
#X obj 76 282 select 0;
#X obj 338 363 outlet;
#X obj 197 637 outlet;
#X obj 265 51 inlet;
#X obj 76 54 inlet;
#X obj 265 105 f \$1;
#X obj 276 75 loadbang;
#X obj 170 102 b;
#X obj 197 465 random;
#N canvas 689 538 264 239 count-down 0;
#X obj 59 66 inlet;
#X obj 127 60 inlet;
#X obj 59 159 outlet;
#X text 123 37 count from?;
#X text 54 35 trigger;
#X obj 59 96 bang;
#X obj 85 131 - 1;
#X obj 59 131 f;
#X connect 0 0 5 0;
#X connect 1 0 7 1;
#X connect 5 0 7 0;
#X connect 6 0 7 1;
#X connect 7 0 6 0;
#X connect 7 0 2 0;
#X restore 76 249 pd count-down;
#X text 334 389 bang if urn empty;
#X text 172 659 urn selection;
#X obj 127 390 t a b;
#X obj 76 77 route bang seed clear;
#N canvas 549 246 251 276 gate_2 0;
#X obj 68 18 inlet;
#X obj 84 65 inlet;
#X obj 68 212 outlet;
#X obj 100 191 outlet;
#X obj 68 92 f 0;
#X obj 68 118 select 0 1;
#X obj 68 41 b;
#X connect 0 0 6 0;
#X connect 1 0 4 1;
#X connect 4 0 5 0;
#X connect 5 0 2 0;
#X connect 5 1 3 0;
#X connect 6 0 4 0;
#X restore 76 206 pd gate_2;
#N canvas 589 293 450 300 init-urn-table 0;
#N canvas 0 25 450 300 count 0;
#X obj 158 193 + 1;
#X obj 122 158 until;
#X obj 122 194 f;
#X obj 122 101 inlet;
#X msg 167 157 0;
#X obj 122 120 t a b;
#X obj 122 224 outlet;
#X connect 0 0 2 1;
#X connect 1 0 2 0;
#X connect 2 0 0 0;
#X connect 2 0 6 0;
#X connect 3 0 5 0;
#X connect 4 0 2 1;
#X connect 5 0 1 0;
#X connect 5 1 4 0;
#X restore 117 197 pd count;
#X obj 117 218 t a a;
#X msg 147 148 resize \$1;
#X obj 117 82 t a a;
#X obj 117 49 inlet;
#X obj 147 128 change;
#X obj 147 105 int;
#X obj 147 173 s \$0-urn-music;
#X obj 117 246 tabwrite \$0-urn-music;
#X connect 0 0 1 0;
#X connect 1 0 8 0;
#X connect 1 1 8 1;
#X connect 2 0 7 0;
#X connect 3 0 0 0;
#X connect 3 1 6 0;
#X connect 4 0 3 0;
#X connect 5 0 2 0;
#X connect 6 0 5 0;
#X restore 323 149 pd init-urn-table;
#X obj 265 125 t b a a a;
#X obj 76 306 t b b;
#X msg 134 181 0;
#X msg 149 204 1;
#X obj 324 171 table \$0-urn-music \$1;
#X obj 127 531 tabread \$0-urn-music;
#X obj 127 559 tabwrite \$0-urn-music;
#X obj 197 609 tabread \$0-urn-music;
#X msg 578 400 seed \$1;
#X obj 644 169 loadbang;
#X obj 644 227 snapshot~;
#X obj 588 169 adc~ 1;
#X obj 588 198 hip~ 5;
#X obj 644 256 abs;
#X obj 644 285 * 1e+07;
#X obj 644 314 % 1000;
#X text 562 143 seed random from analog;
#X obj 644 198 delay 400 1 msec;
#X connect 0 0 25 0;
#X connect 0 1 24 1;
#X connect 1 0 10 1;
#X connect 1 0 23 0;
#X connect 2 0 19 0;
#X connect 2 1 14 0;
#X connect 5 0 7 0;
#X connect 6 0 15 0;
#X connect 7 0 18 0;
#X connect 8 0 7 0;
#X connect 9 0 7 0;
#X connect 10 0 0 0;
#X connect 11 0 2 0;
#X connect 14 0 1 0;
#X connect 14 1 10 0;
#X connect 15 0 16 0;
#X connect 15 2 9 0;
#X connect 16 0 11 0;
#X connect 16 1 3 0;
#X connect 18 0 20 0;
#X connect 18 1 11 1;
#X connect 18 2 10 1;
#X connect 18 3 17 0;
#X connect 19 0 3 0;
#X connect 19 1 21 0;
#X connect 20 0 16 1;
#X connect 21 0 16 1;
#X connect 23 0 24 0;
#X connect 25 0 4 0;
#X connect 26 0 10 0;
#X connect 27 0 35 0;
#X connect 28 0 31 0;
#X connect 29 0 30 0;
#X connect 30 0 28 0;
#X connect 31 0 32 0;
#X connect 32 0 33 0;
#X connect 33 0 26 0;
#X connect 35 0 28 0;
#X restore 229 135 pd urn-music;
#X connect 0 0 17 0;
#X connect 1 0 2 0;
#X connect 2 0 3 0;
#X connect 3 0 4 1;
#X connect 4 0 6 0;
#X connect 5 0 14 0;
#X connect 6 0 5 0;
#X connect 7 0 17 0;
#X connect 8 0 17 1;
#X connect 8 0 6 1;
#X connect 16 0 4 0;
#X connect 16 1 1 1;
#X connect 16 2 1 0;
#X connect 17 0 16 0;
#X connect 17 1 0 0;
#X restore 2024 177 pd urn-jb-music;
#X f 19;
#X floatatom 418 474 7 0 0 0 - - - 0;
#X obj 418 387 r setPause;
#X obj 330 474 r recall;
#X text 355 590 << track selection;
#X obj 1197 360 s recall;
#X obj 418 445 + 5;
#X obj 1193 244 delay 1 1 sec;
#X obj 330 503 delay 1 1 sec;
#X obj 1193 215 t b;
#X obj 348 387 loadbang;
#X msg 1193 302 start;
#X obj 1011 331 readsf~ 1 44100, f 27;
#X obj 1193 273 bng 19 250 50 0 empty empty empty 0 -10 0 12 #fcfcfc #000000 #000000;
#X obj 941 331 random 4;
#X obj 941 389 select 0 1 2 3, f 28;
#X obj 909 467 *~ 0, f 5;
#X obj 957 467 *~ 0, f 5;
#X obj 1005 467 *~ 0, f 5;
#X obj 1053 466 *~ 0, f 5;
#X msg 1161 389 0;
#X text 889 127 MONO NARRATION;
#X text 151 428 RANDOM BREAKS & TRACK SELECTION;
#X obj 1011 360 s~ n-mono-out;
#X obj 835 428 r~ n-mono-out;
#X obj 2026 1158 dac~ 1 2 3 4, f 72;
#X obj 909 582 s~ mono-narration-1;
#X obj 957 553 s~ mono-narration-2;
#X obj 1005 524 s~ mono-narration-3;
#X obj 1053 495 s~ mono-narration-4;
#X obj 2036 1060 r~ mono-narration-1;
#X obj 2203 1060 r~ mono-narration-2;
#X obj 2370 1060 r~ mono-narration-3;
#X obj 2537 1060 r~ mono-narration-4;
#X obj 1623 123 r scenario;
#X obj 1770 239 delay 1 1 sec;
#X obj 1770 210 t b;
#X msg 1770 297 start;
#X text 1802 210 start play;
#X obj 1770 268 bng 19 250 50 0 empty empty empty 0 -10 0 12 #fcfcfc #000000 #000000;
#N canvas 14 25 1426 847 select-scenario 0;
#X obj 314 87 inlet;
#X obj 62 520 outlet;
#X msg 318 901 open scenarie_01.wav;
#X obj 314 122 select 0 1 2 3 4 5 6 7 8 9 10 11 12 13 14 15 16, f 87;
#X msg 353 862 open scenarie_02.wav;
#X msg 389 823 open scenarie_03.wav;
#X msg 425 784 open scenarie_04.wav;
#X msg 460 745 open scenarie_05.wav;
#X msg 496 706 open scenarie_06.wav;
#X msg 516 667 open scenarie_07.wav;
#X msg 551 628 open scenarie_08.wav;
#X msg 587 589 open scenarie_09.wav;
#X msg 623 550 open scenarie_10.wav;
#X msg 658 511 open scenarie_11.wav;
#X msg 694 472 open scenarie_12.wav;
#X msg 734 423 open scenarie_13.wav;
#X msg 769 384 open scenarie_14.wav;
#X msg 805 345 open scenarie_15.wav;
#X msg 841 306 open scenarie_16.wav;
#X msg 876 267 open scenarie_17.wav;
#X connect 0 0 3 0;
#X connect 2 0 1 0;
#X connect 3 0 2 0;
#X connect 3 1 4 0;
#X connect 3 2 5 0;
#X connect 3 3 6 0;
#X connect 3 4 7 0;
#X connect 3 5 8 0;
#X connect 3 6 9 0;
#X connect 3 7 10 0;
#X connect 3 8 11 0;
#X connect 3 9 12 0;
#X connect 3 10 13 0;
#X connect 3 11 14 0;
#X connect 3 12 15 0;
#X connect 3 13 16 0;
#X connect 3 14 17 0;
#X connect 3 15 18 0;
#X connect 3 16 19 0;
#X connect 4 0 1 0;
#X connect 5 0 1 0;
#X connect 6 0 1 0;
#X connect 7 0 1 0;
#X connect 8 0 1 0;
#X connect 9 0 1 0;
#X connect 10 0 1 0;
#X connect 11 0 1 0;
#X connect 12 0 1 0;
#X connect 13 0 1 0;
#X connect 14 0 1 0;
#X connect 15 0 1 0;
#X connect 16 0 1 0;
#X connect 17 0 1 0;
#X connect 18 0 1 0;
#X connect 19 0 1 0;
#X restore 1623 239 pd select-scenario;
#X obj 1623 326 readsf~ 4 44100, f 27;
#X obj 1623 472 s~ scenario-1;
#X obj 1669 443 s~ scenario-2;
#X obj 1716 414 s~ scenario-3;
#X obj 1762 385 s~ scenario-4;
#X obj 1623 357 *~ 1, f 5;
#X obj 1669 357 *~ 1, f 5;
#X obj 1716 357 *~ 1, f 5;
#X obj 1762 356 *~ 1, f 5;
#X obj 1809 356 s recall;
#X obj 2036 1002 r~ scenario-1;
#X obj 2202 1002 r~ scenario-2;
#X obj 2370 1002 r~ scenario-3;
#X obj 2537 1002 r~ scenario-4;
#X obj 2024 119 r music;
#X obj 2170 235 delay 1 1 sec;
#X obj 2170 206 t b;
#X msg 2170 293 start;
#X text 2202 206 start play;
#X obj 2170 264 bng 19 250 50 0 empty empty empty 0 -10 0 12 #fcfcfc #000000 #000000;
#N canvas 14 25 985 847 select-music 0;
#X obj 274 87 inlet;
#X obj 62 700 outlet;
#X obj 274 122 select 0 1 2 3 4 5 6 7 8 9 10 11 12 13 14 15 16 17 18 19, f 98;
#X msg 857 253 open musik_guitar_02.wav;
#X msg 822 292 open musik_guitar_03.wav;
#X msg 901 217 open musik_guitar_01.wav;
#X msg 802 331 open musik_guitar_04.wav;
#X msg 766 370 open musik_guitar_05.wav;
#X msg 731 409 open musik_guitar_06.wav;
#X msg 709 441 open musik_guitar_07.wav;
#X msg 674 480 open musik_guitar_08.wav;
#X msg 654 519 open musik_guitar_09.wav;
#X msg 618 558 open musik_guitar_10.wav;
#X msg 583 597 open musik_guitar_11.wav;
#X msg 547 636 open musik_guitar_12.wav;
#X msg 511 678 open musik_guitar_13.wav;
#X msg 476 717 open musik_guitar_14.wav;
#X msg 456 756 open musik_guitar_15.wav;
#X msg 420 795 open musik_mandolin_01.wav;
#X msg 385 834 open musik_mandolin_02.wav;
#X msg 349 873 open musik_mandolin_03.wav;
#X msg 313 912 open musik_togfloejte_synth_01.wav;
#X msg 278 951 open musik_togfloejte_synth_02.wav;
#X connect 0 0 2 0;
#X connect 2 0 22 0;
#X connect 2 1 21 0;
#X connect 2 2 20 0;
#X connect 2 3 19 0;
#X connect 2 4 18 0;
#X connect 2 5 17 0;
#X connect 2 6 16 0;
#X connect 2 7 15 0;
#X connect 2 8 14 0;
#X connect 2 9 13 0;
#X connect 2 10 12 0;
#X connect 2 11 11 0;
#X connect 2 12 10 0;
#X connect 2 13 9 0;
#X connect 2 14 8 0;
#X connect 2 15 7 0;
#X connect 2 16 6 0;
#X connect 2 17 4 0;
#X connect 2 18 3 0;
#X connect 2 19 5 0;
#X connect 3 0 1 0;
#X connect 4 0 1 0;
#X connect 5 0 1 0;
#X connect 6 0 1 0;
#X connect 7 0 1 0;
#X connect 8 0 1 0;
#X connect 9 0 1 0;
#X connect 10 0 1 0;
#X connect 11 0 1 0;
#X connect 12 0 1 0;
#X connect 13 0 1 0;
#X connect 14 0 1 0;
#X connect 15 0 1 0;
#X connect 16 0 1 0;
#X connect 17 0 1 0;
#X connect 18 0 1 0;
#X connect 19 0 1 0;
#X connect 20 0 1 0;
#X connect 21 0 1 0;
#X connect 22 0 1 0;
#X restore 2024 234 pd select-music;
#X obj 2024 322 readsf~ 4 44100, f 27;
#X obj 2163 351 *~ 1, f 5;
#X obj 2210 351 s recall;
#X obj 2024 467 s~ music-1;
#X obj 2070 438 s~ music-2;
#X obj 2117 409 s~ music-3;
#X obj 2163 380 s~ music-4;
#X obj 2117 351 *~ 1, f 5;
#X obj 2070 351 *~ 1;
#X obj 2024 351 *~ 1;
#X obj 2036 973 r~ music-1;
#X obj 2202 973 r~ music-2;
#X obj 2370 973 r~ music-3;
#X obj 2537 973 r~ music-4;
#X text 1538 124 SCENARIOS;
#X text 1966 119 MUSIC;
#X msg 903 1014 start;
#X obj 903 1104 readsf~ 4 44100, f 37;
#X obj 253 100 loadbang;
#X text 69 128 START BANG (DELAY 2 SEC);
#X obj 253 129 delay 2 1 sec;
#X floatatom 2524 196 5 0 0 0 - - - 0;
#X obj 2524 137 bng 19 250 50 0 empty empty empty 0 -10 0 12 #fcfcfc #000000 #000000;
#X obj 2661 107 loadbang;
#X text 2556 136 no. of files;
#X obj 2710 340 s recall;
#X obj 2681 224 delay 1 1 sec;
#X obj 2681 195 t b;
#X text 2563 196 select file;
#X msg 2681 282 start;
#X text 2713 195 start play;
#X obj 2524 311 readsf~ 1 44100, f 27;
#X obj 2681 253 bng 19 250 50 0 empty empty empty 0 -10 0 12 #fcfcfc #000000 #000000;
#X obj 2454 311 random 4;
#X obj 2454 369 select 0 1 2 3, f 28;
#X obj 2454 408 tgl 19 0 empty empty empty 0 -10 0 12 #fcfcfc #000000 #000000 0 1;
#X obj 2502 408 tgl 19 0 empty empty empty 0 -10 0 12 #fcfcfc #000000 #000000 0 1;
#X obj 2550 408 tgl 19 0 empty empty empty 0 -10 0 12 #fcfcfc #000000 #000000 0 1;
#X obj 2598 408 tgl 19 0 empty empty empty 0 -10 0 12 #fcfcfc #000000 #000000 0 1;
#X obj 2422 447 *~ 0, f 5;
#X obj 2470 447 *~ 0, f 5;
#X obj 2518 447 *~ 0, f 5;
#X obj 2566 446 *~ 0, f 5;
#X msg 2674 369 0;
#X text 2430 108 MONO MUSIC;
#X obj 2524 107 r mono-music;
#N canvas 358 124 1004 748 urn-jb-mono-music 0;
#X msg 406 115 clear \, bang;
#X obj 257 194 ==;
#X obj 257 219 select 1;
#X obj 257 244 tgl 16 0 empty empty empty 0 -8 0 10 #fcfcfc #000000 #000000 0 1;
#X obj 242 273 +;
#X floatatom 242 341 5 0 0 0 - - - 0;
#X obj 242 311 %;
#X obj 243 74 inlet;
#X obj 513 72 inlet;
#X text 42 219 If new value is a repeat...;
#X text 72 270 ... then toggle offset;
#X text 74 311 constrain to urn range;
#X text 104 74 bang for new value;
#X text 438 72 urn range;
#X obj 242 364 outlet;
#X text 130 364 new value out;
#X obj 243 162 t f f f;
#N canvas 57 25 1258 847 urn-mono-music 0;
#X obj 197 488 t a a;
#X obj 127 418 - 1;
#X obj 76 282 select 0;
#X obj 338 363 outlet;
#X obj 197 637 outlet;
#X obj 265 51 inlet;
#X obj 76 54 inlet;
#X obj 265 105 f \$1;
#X obj 276 75 loadbang;
#X obj 170 102 b;
#X obj 197 465 random;
#N canvas 689 538 264 239 count-down 0;
#X obj 59 66 inlet;
#X obj 127 60 inlet;
#X obj 59 159 outlet;
#X text 123 37 count from?;
#X text 54 35 trigger;
#X obj 59 96 bang;
#X obj 85 131 - 1;
#X obj 59 131 f;
#X connect 0 0 5 0;
#X connect 1 0 7 1;
#X connect 5 0 7 0;
#X connect 6 0 7 1;
#X connect 7 0 6 0;
#X connect 7 0 2 0;
#X restore 76 249 pd count-down;
#X text 334 389 bang if urn empty;
#X text 172 659 urn selection;
#X obj 127 390 t a b;
#X obj 76 77 route bang seed clear;
#N canvas 549 246 251 276 gate_2 0;
#X obj 68 18 inlet;
#X obj 84 65 inlet;
#X obj 68 212 outlet;
#X obj 100 191 outlet;
#X obj 68 92 f 0;
#X obj 68 118 select 0 1;
#X obj 68 41 b;
#X connect 0 0 6 0;
#X connect 1 0 4 1;
#X connect 4 0 5 0;
#X connect 5 0 2 0;
#X connect 5 1 3 0;
#X connect 6 0 4 0;
#X restore 76 206 pd gate_2;
#N canvas 589 293 450 300 init-urn-table 0;
#N canvas 0 25 450 300 count 0;
#X obj 158 193 + 1;
#X obj 122 158 until;
#X obj 122 194 f;
#X obj 122 101 inlet;
#X msg 167 157 0;
#X obj 122 120 t a b;
#X obj 122 224 outlet;
#X connect 0 0 2 1;
#X connect 1 0 2 0;
#X connect 2 0 0 0;
#X connect 2 0 6 0;
#X connect 3 0 5 0;
#X connect 4 0 2 1;
#X connect 5 0 1 0;
#X connect 5 1 4 0;
#X restore 117 197 pd count;
#X obj 117 218 t a a;
#X msg 147 148 resize \$1;
#X obj 117 82 t a a;
#X obj 117 49 inlet;
#X obj 147 128 change;
#X obj 147 105 int;
#X obj 147 173 s \$0-urn-mono-music;
#X obj 117 249 tabwrite \$0-urn-mono-music;
#X connect 0 0 1 0;
#X connect 1 0 8 0;
#X connect 1 1 8 1;
#X connect 2 0 7 0;
#X connect 3 0 0 0;
#X connect 3 1 6 0;
#X connect 4 0 3 0;
#X connect 5 0 2 0;
#X connect 6 0 5 0;
#X restore 323 149 pd init-urn-table;
#X obj 265 125 t b a a a;
#X obj 76 306 t b b;
#X msg 134 181 0;
#X msg 149 204 1;
#X msg 578 400 seed \$1;
#X obj 644 169 loadbang;
#X obj 644 227 snapshot~;
#X obj 588 169 adc~ 1;
#X obj 588 198 hip~ 5;
#X obj 644 256 abs;
#X obj 644 285 * 1e+07;
#X obj 644 314 % 1000;
#X text 562 143 seed random from analog;
#X obj 324 171 table \$0-urn-mono-music \$1;
#X obj 127 531 tabread \$0-urn-mono-music;
#X obj 127 559 tabwrite \$0-urn-mono-music;
#X obj 197 609 tabread \$0-urn-mono-music;
#X obj 644 198 delay 500 1 msec;
#X connect 0 0 34 0;
#X connect 0 1 33 1;
#X connect 1 0 10 1;
#X connect 1 0 32 0;
#X connect 2 0 19 0;
#X connect 2 1 14 0;
#X connect 5 0 7 0;
#X connect 6 0 15 0;
#X connect 7 0 18 0;
#X connect 8 0 7 0;
#X connect 9 0 7 0;
#X connect 10 0 0 0;
#X connect 11 0 2 0;
#X connect 14 0 1 0;
#X connect 14 1 10 0;
#X connect 15 0 16 0;
#X connect 15 2 9 0;
#X connect 16 0 11 0;
#X connect 16 1 3 0;
#X connect 18 0 20 0;
#X connect 18 1 11 1;
#X connect 18 2 10 1;
#X connect 18 3 17 0;
#X connect 19 0 3 0;
#X connect 19 1 21 0;
#X connect 20 0 16 1;
#X connect 21 0 16 1;
#X connect 22 0 10 0;
#X connect 23 0 35 0;
#X connect 24 0 27 0;
#X connect 25 0 26 0;
#X connect 26 0 24 0;
#X connect 27 0 28 0;
#X connect 28 0 29 0;
#X connect 29 0 22 0;
#X connect 32 0 33 0;
#X connect 34 0 4 0;
#X connect 35 0 24 0;
#X restore 243 115 pd urn-mono-music;
#X connect 0 0 17 0;
#X connect 1 0 2 0;
#X connect 2 0 3 0;
#X connect 3 0 4 1;
#X connect 4 0 6 0;
#X connect 5 0 14 0;
#X connect 6 0 5 0;
#X connect 7 0 17 0;
#X connect 8 0 17 1;
#X connect 8 0 6 1;
#X connect 16 0 4 0;
#X connect 16 1 1 1;
#X connect 16 2 1 0;
#X connect 17 0 16 0;
#X connect 17 1 0 0;
#X restore 2524 166 pd urn-jb-mono-music;
#N canvas 14 25 1174 753 select-mono-music 0;
#X obj 318 42 inlet;
#X obj 62 330 outlet;
#X obj 318 77 select 0 1 2 3, f 21;
#X msg 425 194 open mono_musik_01.wav;
#X msg 389 233 open mono_musik_02.wav;
#X msg 353 272 open mono_musik_03.wav;
#X msg 318 311 open mono_musik_04.wav;
#X connect 0 0 2 0;
#X connect 2 0 6 0;
#X connect 2 1 5 0;
#X connect 2 2 4 0;
#X connect 2 3 3 0;
#X connect 3 0 1 0;
#X connect 4 0 1 0;
#X connect 5 0 1 0;
#X connect 6 0 1 0;
#X restore 2524 224 pd select-mono-music;
#X obj 2524 340 s~ m-mono-out;
#X obj 2348 408 r~ m-mono-out;
#X obj 2518 504 s~ mono-music-3;
#X obj 2566 475 s~ mono-music-4;
#X obj 2470 533 s~ mono-music-2;
#X obj 2422 562 s~ mono-music-1;
#X obj 2537 1031 r~ mono-music-4;
#X obj 2370 1031 r~ mono-music-3;
#X obj 2202 1031 r~ mono-music-2;
#X obj 2036 1031 r~ mono-music-1;
#X msg 2661 136 4;
#X obj 1011 127 r mono-narration;
#N canvas 358 124 1004 748 urn-jb-mono-narration 0;
#X msg 309 86 clear \, bang;
#X obj 257 194 ==;
#X obj 257 219 select 1;
#X obj 257 244 tgl 16 0 empty empty empty 0 -8 0 10 #fcfcfc #000000 #000000 0 1;
#X obj 242 273 +;
#X floatatom 242 341 5 0 0 0 - - - 0;
#X obj 242 311 %;
#X obj 243 74 inlet;
#X obj 513 72 inlet;
#X text 42 219 If new value is a repeat...;
#X text 72 270 ... then toggle offset;
#X text 74 311 constrain to urn range;
#X text 104 74 bang for new value;
#X text 438 72 urn range;
#X obj 242 364 outlet;
#X text 130 364 new value out;
#X obj 243 162 t f f f;
#N canvas 57 25 1258 847 urn-mono-narration 0;
#X obj 197 488 t a a;
#X obj 127 418 - 1;
#X obj 76 282 select 0;
#X obj 338 363 outlet;
#X obj 197 637 outlet;
#X obj 265 51 inlet;
#X obj 76 54 inlet;
#X obj 265 105 f \$1;
#X obj 276 75 loadbang;
#X obj 170 102 b;
#X obj 197 465 random;
#N canvas 689 538 264 239 count-down 0;
#X obj 59 66 inlet;
#X obj 127 60 inlet;
#X obj 59 159 outlet;
#X text 123 37 count from?;
#X text 54 35 trigger;
#X obj 59 96 bang;
#X obj 85 131 - 1;
#X obj 59 131 f;
#X connect 0 0 5 0;
#X connect 1 0 7 1;
#X connect 5 0 7 0;
#X connect 6 0 7 1;
#X connect 7 0 6 0;
#X connect 7 0 2 0;
#X restore 76 249 pd count-down;
#X text 334 389 bang if urn empty;
#X text 172 659 urn selection;
#X obj 127 390 t a b;
#X obj 76 77 route bang seed clear;
#N canvas 549 246 251 276 gate_2 0;
#X obj 68 18 inlet;
#X obj 84 65 inlet;
#X obj 68 212 outlet;
#X obj 100 191 outlet;
#X obj 68 92 f 0;
#X obj 68 118 select 0 1;
#X obj 68 41 b;
#X connect 0 0 6 0;
#X connect 1 0 4 1;
#X connect 4 0 5 0;
#X connect 5 0 2 0;
#X connect 5 1 3 0;
#X connect 6 0 4 0;
#X restore 76 206 pd gate_2;
#N canvas 589 293 450 300 init-urn-table 0;
#N canvas 0 25 450 300 count 0;
#X obj 158 193 + 1;
#X obj 122 158 until;
#X obj 122 194 f;
#X obj 122 101 inlet;
#X msg 167 157 0;
#X obj 122 120 t a b;
#X obj 122 224 outlet;
#X connect 0 0 2 1;
#X connect 1 0 2 0;
#X connect 2 0 0 0;
#X connect 2 0 6 0;
#X connect 3 0 5 0;
#X connect 4 0 2 1;
#X connect 5 0 1 0;
#X connect 5 1 4 0;
#X restore 117 197 pd count;
#X obj 117 218 t a a;
#X msg 147 148 resize \$1;
#X obj 117 82 t a a;
#X obj 117 49 inlet;
#X obj 147 128 change;
#X obj 147 105 int;
#X obj 147 173 s \$0-urn-mono-narration;
#X obj 117 249 tabwrite \$0-urn-mono-narration;
#X connect 0 0 1 0;
#X connect 1 0 8 0;
#X connect 1 1 8 1;
#X connect 2 0 7 0;
#X connect 3 0 0 0;
#X connect 3 1 6 0;
#X connect 4 0 3 0;
#X connect 5 0 2 0;
#X connect 6 0 5 0;
#X restore 323 149 pd init-urn-table;
#X obj 265 125 t b a a a;
#X obj 76 306 t b b;
#X msg 134 181 0;
#X msg 149 204 1;
#X msg 578 400 seed \$1;
#X obj 644 169 loadbang;
#X obj 644 227 snapshot~;
#X obj 588 169 adc~ 1;
#X obj 588 198 hip~ 5;
#X obj 644 256 abs;
#X obj 644 285 * 1e+07;
#X obj 644 314 % 1000;
#X text 562 143 seed random from analog;
#X obj 644 198 delay 200 1 msec;
#X obj 324 171 table \$0-urn-mono-narration \$1;
#X obj 127 531 tabread \$0-urn-mono-narration;
#X obj 127 559 tabwrite \$0-urn-mono-narration;
#X obj 197 609 tabread \$0-urn-mono-narration;
#X connect 0 0 35 0;
#X connect 0 1 34 1;
#X connect 1 0 10 1;
#X connect 1 0 33 0;
#X connect 2 0 19 0;
#X connect 2 1 14 0;
#X connect 5 0 7 0;
#X connect 6 0 15 0;
#X connect 7 0 18 0;
#X connect 8 0 7 0;
#X connect 9 0 7 0;
#X connect 10 0 0 0;
#X connect 11 0 2 0;
#X connect 14 0 1 0;
#X connect 14 1 10 0;
#X connect 15 0 16 0;
#X connect 15 2 9 0;
#X connect 16 0 11 0;
#X connect 16 1 3 0;
#X connect 18 0 20 0;
#X connect 18 1 11 1;
#X connect 18 2 10 1;
#X connect 18 3 17 0;
#X connect 19 0 3 0;
#X connect 19 1 21 0;
#X connect 20 0 16 1;
#X connect 21 0 16 1;
#X connect 22 0 10 0;
#X connect 23 0 31 0;
#X connect 24 0 27 0;
#X connect 25 0 26 0;
#X connect 26 0 24 0;
#X connect 27 0 28 0;
#X connect 28 0 29 0;
#X connect 29 0 22 0;
#X connect 31 0 24 0;
#X connect 33 0 34 0;
#X connect 35 0 4 0;
#X restore 243 115 pd urn-mono-narration;
#X connect 0 0 17 0;
#X connect 1 0 2 0;
#X connect 2 0 3 0;
#X connect 3 0 4 1;
#X connect 4 0 6 0;
#X connect 5 0 14 0;
#X connect 6 0 5 0;
#X connect 7 0 17 0;
#X connect 8 0 17 1;
#X connect 8 0 6 1;
#X connect 16 0 4 0;
#X connect 16 1 1 1;
#X connect 16 2 1 0;
#X connect 17 0 16 0;
#X connect 17 1 0 0;
#X restore 1011 186 pd urn-jb-mono-narration;
#N canvas 54 34 1174 753 select-mono-narration 0;
#X obj 318 42 inlet;
#X obj 61 665 outlet;
#X msg 495 451 open mono_anekdote_ai_01.wav;
#X msg 459 490 open mono_anekdote_ai_02.wav;
#X msg 424 529 open mono_anekdote_ai_03.wav;
#X msg 388 568 open mono_anekdote_ai_04.wav;
#X msg 352 607 open mono_anekdote_ai_05.wav;
#X msg 317 646 open mono_anekdote_ai_06.wav;
#X msg 693 217 open mono_anekdote_dan_01.wav;
#X msg 657 256 open mono_anekdote_dan_02.wav;
#X msg 622 295 open mono_anekdote_dan_03.wav;
#X msg 586 334 open mono_anekdote_dan_04.wav;
#X msg 550 373 open mono_anekdote_dan_05.wav;
#X msg 515 412 open mono_anekdote_dan_06.wav;
#X obj 318 77 select 0 1 2 3 4 5 6 7 8 9 10 11 12 13, f 59;
#X msg 705 183 open mono_anekdote_ernholt_02.wav;
#X msg 741 144 open mono_anekdote_ernholt_01.wav;
#X connect 0 0 14 0;
#X connect 2 0 1 0;
#X connect 3 0 1 0;
#X connect 4 0 1 0;
#X connect 5 0 1 0;
#X connect 6 0 1 0;
#X connect 7 0 1 0;
#X connect 8 0 1 0;
#X connect 9 0 1 0;
#X connect 10 0 1 0;
#X connect 11 0 1 0;
#X connect 12 0 1 0;
#X connect 13 0 1 0;
#X connect 14 0 7 0;
#X connect 14 1 6 0;
#X connect 14 2 5 0;
#X connect 14 3 4 0;
#X connect 14 4 3 0;
#X connect 14 5 2 0;
#X connect 14 6 13 0;
#X connect 14 7 12 0;
#X connect 14 8 11 0;
#X connect 14 9 10 0;
#X connect 14 10 9 0;
#X connect 14 11 8 0;
#X connect 14 12 15 0;
#X connect 14 13 16 0;
#X connect 15 0 1 0;
#X connect 16 0 1 0;
#X restore 1011 244 pd select-mono-narration;
#X obj 330 618 sel 0 1 2 3, f 20;
#X msg 467 531 4;
#X msg 2154 147 20;
#X obj 418 416 random 55;
#X obj 246 561 s setPause;
#X obj 330 734 s mono-narration;
#X obj 364 705 s scenario;
#X obj 398 676 s music;
#X obj 432 647 s mono-music;
#X text 501 530 << no. of tracks;
#X text 452 445 << min pause (sec);
#X text 477 474 << random pause (sec);
#X obj 253 216 s start-tracks;
#X obj 218 474 r start-tracks;
#X text 815 389 random output >>;
#X text 1057 216 << select file;
#X text 1227 215 << start play;
#X text 1195 389 << reset output;
#X text 1192 186 << autoclearing & looping urn;
#X text 2708 368 << reset output;
#X text 2328 369 random output >>;
#X text 1209 156 << no. of mono narration files;
#X obj 1159 780 + 1;
#X floatatom 1114 839 5 0 0 0 - - - 0;
#X msg 1159 838 0;
#X obj 1114 751 bng 19 250 50 0 empty empty empty 0 -10 0 12 #fcfcfc #000000 #000000;
#X obj 1114 780 f;
#X text 1213 809 << no. reamp files;
#X text 1193 780 << counter (looping);
#X obj 903 1162 s~ rs1o1;
#X obj 967 1162 s~ rs1o2;
#X obj 1031 1162 s~ rs1o3;
#X obj 1095 1162 s~ rs1o4;
#X text 1265 867 << buffer next files;
#X obj 1159 1162 s recall-reamp;
#X obj 1114 721 r recall-reamp;
#X floatatom 1030 947 7 0 0 0 - - - 0;
#X obj 903 985 delay 1 1 sec;
#X obj 903 839 delay 1 1 sec;
#X text 911 947 random pause >>;
#X obj 1030 867 random 210;
#X text 918 867 max 3.5 min >>;
#X obj 263 187 s start-reamp;
#X obj 1009 721 r start-reamp;
#X obj 2036 944 r~ rs1o1;
#X obj 2202 944 r~ rs1o2;
#X obj 2370 944 r~ rs1o3;
#X obj 2537 944 r~ rs1o4;
#X msg 1114 1075 open reamp_01.wav;
#X msg 1133 1046 open reamp_02.wav;
#X msg 1153 1017 open reamp_03.wav;
#X msg 1172 988 open reamp_04.wav;
#X text 837 765 REAMP LOOP W. RANDOM PAUSES;
#X msg 405 938 start;
#X obj 640 994 bng 19 250 50 0 empty empty empty 0 -10 0 12 #c6feff #000000 #000000;
#X text 334 910 STREAM 1;
#X obj 640 1022 s s1b;
#X obj 457 909 r s1b;
#X obj 405 966 readsf~ 4 44100, f 34;
#X obj 405 909 r s2b;
#X msg 405 1098 start;
#X obj 640 1154 bng 19 250 50 0 empty empty empty 0 -10 0 12 #c6feff #000000 #000000;
#X obj 405 1126 readsf~ 4 44100, f 34;
#X text 334 1070 STREAM 2;
#X obj 640 1184 s s2b;
#X obj 457 1070 r s2b;
#X obj 405 1070 r s1b;
#X obj 405 1184 s~ s2o1;
#X obj 463 1184 s~ s2o2;
#X obj 522 1184 s~ s2o3;
#X obj 581 1184 s~ s2o4;
#X obj 405 1022 s~ s1o1;
#X obj 463 1022 s~ s1o2;
#X obj 522 1022 s~ s1o3;
#X obj 581 1022 s~ s1o4;
#X msg 457 938 open ambience.wav;
#X msg 457 1098 open ambience.wav;
#X obj 273 158 s s2b;
#X text 363 217 << start random tracks;
#X text 367 187 << start reamp loop;
#X text 322 158 << start ambience loop;
#X obj 506 909 loadbang;
#X obj 2036 914 r~ s2o1;
#X obj 2036 885 r~ s1o1;
#X obj 2202 886 r~ s1o2;
#X obj 2202 915 r~ s2o2;
#X obj 2370 915 r~ s1o3;
#X obj 2370 886 r~ s2o3;
#X obj 2537 915 r~ s1o4;
#X obj 2537 886 r~ s2o4;
#X msg 1753 151 17;
#X text 146 1024 ALTERNATING AMBIENCE STREAMS (LOOP);
#X msg 1176 156 14;
#X obj 1114 867 select 0 1 2 3 4 5 6;
#X msg 1193 959 open reamp_05.wav;
#X msg 1211 930 open reamp_06.wav;
#X msg 1231 901 open reamp_07.wav;
#X obj 1159 809 sel 7, f 6;
#X obj 903 1133 *~ 0.4;
#X obj 967 1133 *~ 0.4;
#X obj 1031 1133 *~ 0.4;
#X obj 1095 1133 *~ 0.4;
#X obj 2026 1129 *~ 0.85, f 9;
#X obj 2193 1129 *~ 0.85, f 9;
#X obj 2360 1129 *~ 0.85, f 9;
#X obj 2527 1129 *~ 0.85, f 9;
#X msg 947 425 0.8;
#X msg 989 421 0.8;
#X msg 1033 423 0.8;
#X msg 1075 419 0.8;
#X obj 581 995 *~ 1.25;
#X obj 405 995 *~ 1.25;
#X obj 463 995 *~ 1.25;
#X obj 522 995 *~ 1.25;
#X obj 405 1155 *~ 1.25;
#X obj 463 1155 *~ 1.25;
#X obj 522 1155 *~ 1.25;
#X obj 581 1155 *~ 1.25;
#X obj 1159 1132 bng 19 250 50 0 empty empty empty 0 -10 0 12 #fcfcfc #000000 #000000;
#X connect 0 0 140 0;
#X connect 1 0 6 0;
#X connect 1 0 144 0;
#X connect 2 0 141 0;
#X connect 3 0 139 0;
#X connect 4 0 138 0;
#X connect 4 0 30 0;
#X connect 5 0 232 0;
#X connect 6 0 0 0;
#X connect 7 0 56 0;
#X connect 8 0 10 0;
#X connect 9 0 230 0;
#X connect 10 0 7 0;
#X connect 10 0 52 0;
#X connect 12 0 77 0;
#X connect 13 0 16 0;
#X connect 14 0 142 0;
#X connect 16 0 12 0;
#X connect 16 0 73 0;
#X connect 17 0 24 1;
#X connect 18 0 143 0;
#X connect 19 0 24 0;
#X connect 22 0 17 0;
#X connect 23 0 29 0;
#X connect 24 0 1 0;
#X connect 25 0 23 0;
#X connect 26 0 143 0;
#X connect 27 0 28 0;
#X connect 28 0 39 0;
#X connect 28 1 21 0;
#X connect 28 1 36 0;
#X connect 29 0 27 0;
#X connect 30 0 31 0;
#X connect 31 0 246 0;
#X connect 31 1 247 0;
#X connect 31 2 248 0;
#X connect 31 3 249 0;
#X connect 32 0 42 0;
#X connect 33 0 43 0;
#X connect 34 0 44 0;
#X connect 35 0 45 0;
#X connect 36 0 247 0;
#X connect 36 0 32 1;
#X connect 36 0 33 1;
#X connect 36 0 34 1;
#X connect 36 0 35 1;
#X connect 40 0 35 0;
#X connect 40 0 34 0;
#X connect 40 0 33 0;
#X connect 40 0 32 0;
#X connect 46 0 242 0;
#X connect 47 0 243 0;
#X connect 48 0 244 0;
#X connect 49 0 245 0;
#X connect 50 0 8 0;
#X connect 51 0 55 0;
#X connect 52 0 51 0;
#X connect 53 0 57 0;
#X connect 55 0 53 0;
#X connect 56 0 57 0;
#X connect 57 0 62 0;
#X connect 57 1 63 0;
#X connect 57 2 64 0;
#X connect 57 3 65 0;
#X connect 57 4 66 0;
#X connect 62 0 58 0;
#X connect 63 0 59 0;
#X connect 64 0 60 0;
#X connect 65 0 61 0;
#X connect 67 0 242 0;
#X connect 68 0 243 0;
#X connect 69 0 244 0;
#X connect 70 0 245 0;
#X connect 71 0 13 0;
#X connect 72 0 76 0;
#X connect 73 0 72 0;
#X connect 74 0 78 0;
#X connect 76 0 74 0;
#X connect 77 0 78 0;
#X connect 78 0 87 0;
#X connect 78 1 86 0;
#X connect 78 2 85 0;
#X connect 78 3 79 0;
#X connect 78 4 80 0;
#X connect 79 0 84 0;
#X connect 85 0 83 0;
#X connect 86 0 82 0;
#X connect 87 0 81 0;
#X connect 88 0 242 0;
#X connect 89 0 243 0;
#X connect 90 0 244 0;
#X connect 91 0 245 0;
#X connect 94 0 95 0;
#X connect 95 0 238 0;
#X connect 95 1 239 0;
#X connect 95 2 240 0;
#X connect 95 3 241 0;
#X connect 95 4 258 0;
#X connect 96 0 98 0;
#X connect 98 0 152 0;
#X connect 98 0 182 0;
#X connect 98 0 217 0;
#X connect 99 0 125 0;
#X connect 100 0 124 0;
#X connect 100 0 111 0;
#X connect 101 0 136 0;
#X connect 104 0 110 0;
#X connect 105 0 104 0;
#X connect 107 0 109 0;
#X connect 109 0 126 0;
#X connect 109 1 103 0;
#X connect 109 1 121 0;
#X connect 110 0 107 0;
#X connect 111 0 112 0;
#X connect 112 0 113 0;
#X connect 112 1 114 0;
#X connect 112 2 115 0;
#X connect 112 3 116 0;
#X connect 113 0 117 1;
#X connect 114 0 118 1;
#X connect 115 0 119 1;
#X connect 116 0 120 1;
#X connect 117 0 131 0;
#X connect 118 0 130 0;
#X connect 119 0 128 0;
#X connect 120 0 129 0;
#X connect 121 0 113 0;
#X connect 121 0 114 0;
#X connect 121 0 115 0;
#X connect 121 0 116 0;
#X connect 123 0 100 0;
#X connect 124 0 99 0;
#X connect 124 0 105 0;
#X connect 125 0 109 0;
#X connect 127 0 120 0;
#X connect 127 0 119 0;
#X connect 127 0 118 0;
#X connect 127 0 117 0;
#X connect 132 0 245 0;
#X connect 133 0 244 0;
#X connect 134 0 243 0;
#X connect 135 0 242 0;
#X connect 136 0 124 1;
#X connect 137 0 4 0;
#X connect 138 0 3 0;
#X connect 138 0 25 0;
#X connect 139 0 28 0;
#X connect 140 0 145 0;
#X connect 140 1 146 0;
#X connect 140 2 147 0;
#X connect 140 3 148 0;
#X connect 141 0 6 1;
#X connect 142 0 16 1;
#X connect 143 0 22 0;
#X connect 153 0 24 0;
#X connect 162 0 166 1;
#X connect 163 0 233 0;
#X connect 164 0 166 0;
#X connect 165 0 166 0;
#X connect 165 0 178 0;
#X connect 165 0 180 0;
#X connect 166 0 162 0;
#X connect 166 0 163 0;
#X connect 166 0 237 0;
#X connect 175 0 165 0;
#X connect 176 0 177 1;
#X connect 177 0 94 0;
#X connect 178 0 177 0;
#X connect 180 0 176 0;
#X connect 183 0 165 0;
#X connect 184 0 242 0;
#X connect 185 0 243 0;
#X connect 186 0 244 0;
#X connect 187 0 245 0;
#X connect 188 0 95 0;
#X connect 189 0 95 0;
#X connect 190 0 95 0;
#X connect 191 0 95 0;
#X connect 193 0 198 0;
#X connect 194 0 196 0;
#X connect 197 0 215 0;
#X connect 198 0 251 0;
#X connect 198 1 252 0;
#X connect 198 2 253 0;
#X connect 198 3 250 0;
#X connect 198 4 194 0;
#X connect 199 0 193 0;
#X connect 200 0 202 0;
#X connect 201 0 204 0;
#X connect 202 0 254 0;
#X connect 202 1 255 0;
#X connect 202 2 256 0;
#X connect 202 3 257 0;
#X connect 202 4 201 0;
#X connect 205 0 216 0;
#X connect 206 0 200 0;
#X connect 215 0 198 0;
#X connect 216 0 202 0;
#X connect 221 0 215 0;
#X connect 222 0 242 0;
#X connect 223 0 242 0;
#X connect 224 0 243 0;
#X connect 225 0 243 0;
#X connect 226 0 244 0;
#X connect 227 0 244 0;
#X connect 228 0 245 0;
#X connect 229 0 245 0;
#X connect 230 0 10 1;
#X connect 232 0 138 1;
#X connect 233 0 188 0;
#X connect 233 1 189 0;
#X connect 233 2 190 0;
#X connect 233 3 191 0;
#X connect 233 4 234 0;
#X connect 233 5 235 0;
#X connect 233 6 236 0;
#X connect 237 0 164 0;
#X connect 238 0 169 0;
#X connect 239 0 170 0;
#X connect 240 0 171 0;
#X connect 241 0 172 0;
#X connect 242 0 41 0;
#X connect 243 0 41 1;
#X connect 244 0 41 2;
#X connect 245 0 41 3;
#X connect 246 0 32 1;
#X connect 247 0 33 1;
#X connect 248 0 34 1;
#X connect 249 0 35 1;
#X connect 250 0 214 0;
#X connect 251 0 211 0;
#X connect 252 0 212 0;
#X connect 253 0 213 0;
#X connect 254 0 207 0;
#X connect 255 0 208 0;
#X connect 256 0 209 0;
#X connect 257 0 210 0;
#X connect 258 0 174 0;
