#N canvas 355 61 589 538 10;
#X msg 250 245 clear \, bang;
#N canvas 57 25 1258 847 urn 0;
#X obj 197 609 tabread \$0-urn;
#X obj 127 559 tabwrite \$0-urn;
#X obj 197 488 t a a;
#X obj 127 418 - 1;
#X obj 76 282 select 0;
#X obj 127 531 tabread \$0-urn;
#X obj 338 363 outlet;
#X obj 197 637 outlet;
#X obj 265 51 inlet;
#X obj 76 54 inlet;
#X obj 265 105 f \$1;
#X obj 276 75 loadbang;
#X obj 170 102 b;
#X obj 197 465 random;
#N canvas 689 538 264 239 count-down 0;
#X obj 59 66 inlet;
#X obj 127 60 inlet;
#X obj 59 159 outlet;
#X text 123 37 count from?;
#X text 54 35 trigger;
#X obj 59 96 bang;
#X obj 85 131 - 1;
#X obj 59 131 f;
#X connect 0 0 5 0;
#X connect 1 0 7 1;
#X connect 5 0 7 0;
#X connect 6 0 7 1;
#X connect 7 0 6 0;
#X connect 7 0 2 0;
#X restore 76 249 pd count-down;
#X text 334 389 bang if urn empty;
#X text 172 659 urn selection;
#X msg 197 371 seed \$1;
#X obj 197 175 f;
#X obj 324 171 table \$0-urn \$1;
#X obj 127 390 t a b;
#X obj 76 77 route bang seed clear;
#N canvas 549 246 251 276 gate_2 0;
#X obj 68 18 inlet;
#X obj 84 65 inlet;
#X obj 68 212 outlet;
#X obj 100 191 outlet;
#X obj 68 92 f 0;
#X obj 68 118 select 0 1;
#X obj 68 41 b;
#X connect 0 0 6 0;
#X connect 1 0 4 1;
#X connect 4 0 5 0;
#X connect 5 0 2 0;
#X connect 5 1 3 0;
#X connect 6 0 4 0;
#X restore 76 206 pd gate_2;
#N canvas 0 0 450 300 init-urn-table 0;
#N canvas 0 0 450 300 count 0;
#X obj 158 193 + 1;
#X obj 122 158 until;
#X obj 122 194 f;
#X obj 122 101 inlet;
#X msg 167 157 0;
#X obj 122 120 t a b;
#X obj 122 224 outlet;
#X connect 0 0 2 1;
#X connect 1 0 2 0;
#X connect 2 0 0 0;
#X connect 2 0 6 0;
#X connect 3 0 5 0;
#X connect 4 0 2 1;
#X connect 5 0 1 0;
#X connect 5 1 4 0;
#X restore 117 197 pd count;
#X obj 117 218 t a a;
#X obj 117 249 tabwrite \$0-urn;
#X obj 147 173 s \$0-urn;
#X msg 147 148 resize \$1;
#X obj 117 82 t a a;
#X obj 117 49 inlet;
#X obj 147 128 change;
#X obj 147 105 int;
#X connect 0 0 1 0;
#X connect 1 0 2 0;
#X connect 1 1 2 1;
#X connect 4 0 3 0;
#X connect 5 0 0 0;
#X connect 5 1 8 0;
#X connect 6 0 5 0;
#X connect 7 0 4 0;
#X connect 8 0 7 0;
#X restore 323 149 pd init-urn-table;
#X obj 265 125 t b a a a;
#X obj 76 306 t b b;
#X msg 134 181 0;
#X msg 149 204 1;
#X connect 0 0 7 0;
#X connect 2 0 0 0;
#X connect 2 1 1 1;
#X connect 3 0 5 0;
#X connect 3 0 13 1;
#X connect 4 0 25 0;
#X connect 4 1 20 0;
#X connect 5 0 1 0;
#X connect 8 0 10 0;
#X connect 9 0 21 0;
#X connect 10 0 24 0;
#X connect 11 0 10 0;
#X connect 12 0 10 0;
#X connect 13 0 2 0;
#X connect 14 0 4 0;
#X connect 17 0 13 0;
#X connect 18 0 17 0;
#X connect 20 0 3 0;
#X connect 20 1 13 0;
#X connect 21 0 22 0;
#X connect 21 1 18 0;
#X connect 21 2 12 0;
#X connect 22 0 14 0;
#X connect 22 1 6 0;
#X connect 24 0 26 0;
#X connect 24 1 14 1;
#X connect 24 2 13 1;
#X connect 24 3 23 0;
#X connect 25 0 6 0;
#X connect 25 1 27 0;
#X connect 26 0 22 1;
#X connect 27 0 22 1;
#X restore 217 225 pd urn;
#X obj 231 304 ==;
#X obj 231 329 select 1;
#X obj 231 354 tgl 16 0 empty empty empty 0 -8 0 10 #fcfcfc #000000 #000000 0 1;
#X obj 216 383 +;
#X floatatom 216 451 5 0 0 0 - - - 0;
#X obj 216 421 %;
#X obj 217 184 inlet;
#X obj 387 182 inlet;
#X text 47 329 If new value is a repeat...;
#X text 66 380 ... then toggle offset;
#X text 68 421 constrain to urn range;
#X text 98 184 bang for new value;
#X text 322 182 urn range;
#X obj 216 474 outlet;
#X text 124 474 new value out;
#X text 14 31 Urn-jb from Max (no-repeat and auto-reset) \; Add noise seed from adc~ to use on Bela Board: https://forum.bela.io/d/4754-randomness-in-pure-data-patches/2 \; Made with c_urn from rjdj: https://github.com/rjdj/rjlib/tree/master/rj, f 80;
#X obj 217 272 t f f f;
#X connect 0 0 1 0;
#X connect 1 0 18 0;
#X connect 1 1 0 0;
#X connect 2 0 3 0;
#X connect 3 0 4 0;
#X connect 4 0 5 1;
#X connect 5 0 7 0;
#X connect 6 0 15 0;
#X connect 7 0 6 0;
#X connect 8 0 1 0;
#X connect 9 0 1 1;
#X connect 9 0 7 1;
#X connect 18 0 5 0;
#X connect 18 1 2 1;
#X connect 18 2 2 0;
